<svg xmlns="http://www.w3.org/2000/svg" xmlns:xlink="http://www.w3.org/1999/xlink" fill="#6c63ff" version="1.1" x="0px"
    y="0px" viewBox="0 0 48 48" enable-background="new 0 0 48 48" xml:space="preserve">
    <g>
        <path class="food_logo_first"
         d="M1,46c-0.552,0-1,0.447-1,1s0.448,1,1,1h46c0.553,0,1-0.447,1-1s-0.447-1-1-1H36H10H1z"></path>
        <path class="food_logo_second"
            d="M37,45h8c1.654,0,3-1.346,3-3v-5c0-1.647-1.335-2.986-2.979-2.998c0,0,0-0.001,0-0.002v-2.029c0-0.552-0.447-1-1-1h-3.688   c2.619-0.153,4.71-2.312,4.71-4.971c0-0.553-0.447-1-1-1h-1.185h-5.631h-1.185c-0.553,0-1,0.447-1,1   c0,2.658,2.091,4.817,4.71,4.971h-3.731c-0.553,0-1,0.448-1,1V34H22v-2.907l0.564,0.4c0.783,0.557,1.816,0.663,2.697,0.277   c0.137-0.061,0.27-0.133,0.398-0.217l4.59-2.998l0.221,0.504c0.164,0.375,0.531,0.6,0.917,0.6c0.134,0,0.27-0.027,0.399-0.085   c0.507-0.221,0.737-0.811,0.516-1.316l-0.537-1.228c0.075-0.173,0.136-0.354,0.175-0.542c0.151-0.719,0.013-1.454-0.39-2.067   c-0.345-0.529-0.846-0.897-1.404-1.091l-1.051-2.401c-0.221-0.505-0.81-0.737-1.315-0.516c1.263-0.554,1.84-2.03,1.288-3.292   l-0.803-1.833c-0.538-1.226-2.062-1.826-3.292-1.287c-1.262,0.552-1.841,2.029-1.288,3.292l0.802,1.833   c0.397,0.91,1.297,1.499,2.291,1.499c0.346,0,0.682-0.07,1-0.209c-0.506,0.222-0.736,0.811-0.515,1.316l0.762,1.741   c-0.096,0.048-0.194,0.095-0.281,0.151l-3.525,2.303l-3.225-2.287c-0.238-0.169-0.502-0.282-0.773-0.367   C19.848,23.101,19.437,23,19,23h-6c-0.982,0-1.811,0.117-2.484,0.938s-0.611,1.109-0.746,1.666l-0.122,0.506l-0.591,2.445   L8.47,30.98l-0.392,1.623C7.963,33.076,7.984,33.555,8.11,34H5c0.477,0,0.887-0.336,0.98-0.804l1-5   c0.059-0.294-0.018-0.599-0.207-0.83C6.583,27.135,6.3,27,6,27H2c-0.3,0-0.583,0.135-0.773,0.366   c-0.189,0.231-0.266,0.536-0.207,0.83l1,5C2.113,33.664,2.523,34,3,34c-1.654,0-3,1.346-3,3v5c0,1.654,1.346,3,3,3h6   c0,0.553,0.447,1,1,1s1-0.447,1-1h24c0,0.553,0.447,1,1,1S37,45.553,37,45z M26.978,18.581c-0.248,0.108-0.551-0.014-0.658-0.258   l-0.802-1.833c-0.11-0.252,0.005-0.548,0.258-0.658c0.064-0.028,0.132-0.042,0.2-0.042c0.198,0,0.378,0.117,0.458,0.299   l0.803,1.833C27.347,18.174,27.23,18.47,26.978,18.581z M37.227,27h5.631c-0.414,1.162-1.514,2-2.815,2S37.641,28.162,37.227,27z    M37.021,32.971h6V34h-2.979h-3.021V32.971z M10.021,33.074l0.823-3.407l0.788-3.26l0.227-0.907   c0.006-0.02,0.018-0.035,0.023-0.054c0.068-0.206,0.221-0.361,0.406-0.446H13h3.807H18h1c0.406,0,0.611,0.107,0.834,0.267   l4.34,3.078l4.654-3.04l0.011-0.008c0.036-0.023,0.073-0.044,0.11-0.061c0.329-0.144,0.725-0.032,0.928,0.277   c0.227,0.348,0.129,0.813-0.217,1.038l-0.223,0.146l-4.871,3.182c-0.034,0.023-0.07,0.044-0.109,0.06   c-0.238,0.104-0.518,0.078-0.734-0.075l-2.145-1.52l-0.014,0.011c-0.162-0.114-0.35-0.196-0.564-0.196   c-0.497,0-0.89,0.368-0.968,0.842H20v5h-5.854l4.363-3.637c0.564-0.471,0.912-1.132,0.979-1.864   c0.013-0.145,0.007-0.288-0.003-0.431c-0.03-0.468-0.182-0.913-0.438-1.307c-0.06-0.093-0.114-0.188-0.186-0.273   c-0.438-0.525-1.053-0.849-1.72-0.945c-0.131-0.018-0.26-0.043-0.393-0.043c-0.465,0-0.918,0.125-1.32,0.347l-1.996,1.663   l-0.622,0.519c-0.429,0.192-0.685,0.651-0.573,1.125c0.033,0.143,0.1,0.268,0.184,0.377c0.232,0.302,0.625,0.46,1.02,0.366   c0.135-0.031,0.256-0.089,0.36-0.165l0.002-0.002l0.798-0.665l1.669-1.391c0.14-0.116,0.31-0.173,0.479-0.173   c0.215,0,0.428,0.091,0.576,0.27c0.026,0.03,0.035,0.068,0.056,0.102c0.186,0.312,0.136,0.715-0.151,0.954l-4.866,4.055   l-1.134,0.945C11.092,33.941,10.922,34,10.75,34c-0.018,0-0.037-0.006-0.055-0.008c-0.119-0.009-0.236-0.04-0.341-0.105   C10.08,33.716,9.945,33.389,10.021,33.074z M4.78,29l-0.6,3H3.819l-0.6-3H4.78z M3,43c-0.552,0-1-0.449-1-1v-5c0-0.551,0.448-1,1-1   h42c0.552,0,1,0.449,1,1v5c0,0.551-0.448,1-1,1H3z">
        </path>
        <path class="food_logo_third"
            d="M15.994,22.289c0.258,0,0.518-0.021,0.779-0.066c1.223-0.206,2.293-0.876,3.012-1.887c0.719-1.011,1-2.241,0.793-3.464   c-0.422-2.496-2.777-4.24-5.352-3.805c-2.525,0.426-4.232,2.828-3.806,5.353C11.8,20.662,13.723,22.289,15.994,22.289z    M15.559,15.038C15.709,15.013,15.857,15,16.004,15c1.293,0,2.387,0.927,2.603,2.204c0.118,0.697-0.043,1.397-0.452,1.973   c-0.408,0.575-1.018,0.957-1.713,1.074c-1.479,0.254-2.809-0.744-3.049-2.165C13.15,16.648,14.122,15.281,15.559,15.038z">
        </path>
        <path class="food_logo_fourth"
            d="M39.397,19.763c0.192,0.179,0.5,0.463,0.614,0.617c-0.07,0.111-0.271,0.357-0.837,0.842   c-0.42,0.359-0.469,0.991-0.109,1.41c0.198,0.231,0.479,0.35,0.76,0.35c0.23,0,0.462-0.079,0.65-0.24   c0.784-0.672,1.969-1.687,1.431-3.045c-0.21-0.53-0.688-0.972-1.149-1.4c-0.227-0.21-0.605-0.562-0.676-0.637   c0.013-0.039,0.113-0.263,0.857-0.9c0.42-0.359,0.469-0.991,0.109-1.41c-0.36-0.42-0.991-0.467-1.41-0.109   c-0.96,0.822-1.862,1.73-1.452,2.986C38.379,18.82,38.896,19.299,39.397,19.763z">
        </path>
        <path class="food_logo_fifth"
            d="M43.355,20.781c0.192,0.179,0.5,0.463,0.614,0.617c-0.07,0.111-0.271,0.357-0.837,0.842   c-0.42,0.359-0.469,0.991-0.109,1.41c0.198,0.231,0.479,0.35,0.76,0.35c0.23,0,0.462-0.079,0.65-0.24   c0.784-0.672,1.969-1.687,1.431-3.045c-0.21-0.53-0.688-0.972-1.149-1.4c-0.227-0.21-0.605-0.562-0.676-0.637   c0.013-0.039,0.113-0.263,0.857-0.9c0.42-0.359,0.469-0.991,0.109-1.41c-0.36-0.42-0.991-0.467-1.41-0.109   c-0.96,0.822-1.862,1.73-1.452,2.986C42.337,19.838,42.854,20.317,43.355,20.781z">
        </path>
        <path class="food_logo_sixth"
            d="M35.355,20.781c0.192,0.179,0.5,0.463,0.614,0.617c-0.07,0.111-0.271,0.357-0.837,0.842   c-0.42,0.359-0.469,0.991-0.109,1.41c0.198,0.231,0.479,0.35,0.76,0.35c0.23,0,0.462-0.079,0.65-0.24   c0.784-0.672,1.969-1.687,1.431-3.045c-0.21-0.53-0.688-0.972-1.149-1.4c-0.227-0.21-0.605-0.562-0.676-0.637   c0.013-0.039,0.113-0.263,0.857-0.9c0.42-0.359,0.469-0.991,0.109-1.41c-0.36-0.42-0.991-0.467-1.41-0.109   c-0.96,0.822-1.862,1.73-1.452,2.986C34.337,19.838,34.854,20.317,35.355,20.781z">
        </path>
    </g>
</svg>